<mxfile host="app.diagrams.net" modified="2022-11-22T08:28:31.383Z" agent="5.0 (Windows NT 10.0; Win64; x64) AppleWebKit/537.36 (KHTML, like Gecko) Chrome/107.0.0.0 Safari/537.36" etag="KwkbKqFefDQLb1-f1eCT" version="20.5.3" type="github">
  <diagram id="5CN25xif8imeSh44Gme3" name="Page-1">
    <mxGraphModel dx="1221" dy="672" grid="1" gridSize="10" guides="1" tooltips="1" connect="1" arrows="1" fold="1" page="1" pageScale="1" pageWidth="850" pageHeight="1100" math="0" shadow="0">
      <root>
        <mxCell id="0" />
        <mxCell id="1" parent="0" />
        <mxCell id="dN1vhKYBmb369EX6Gjwd-1" value="User" style="shape=umlActor;verticalLabelPosition=bottom;verticalAlign=top;html=1;outlineConnect=0;" vertex="1" parent="1">
          <mxGeometry x="160" y="280" width="40" height="80" as="geometry" />
        </mxCell>
        <mxCell id="dN1vhKYBmb369EX6Gjwd-2" value="Admin" style="shape=umlActor;verticalLabelPosition=bottom;verticalAlign=top;html=1;outlineConnect=0;" vertex="1" parent="1">
          <mxGeometry x="680" y="280" width="40" height="80" as="geometry" />
        </mxCell>
        <mxCell id="dN1vhKYBmb369EX6Gjwd-3" value="" style="rounded=0;whiteSpace=wrap;html=1;" vertex="1" parent="1">
          <mxGeometry x="240" y="120" width="400" height="400" as="geometry" />
        </mxCell>
        <mxCell id="dN1vhKYBmb369EX6Gjwd-4" value="Add/Edit/Delete Model" style="ellipse;whiteSpace=wrap;html=1;" vertex="1" parent="1">
          <mxGeometry x="480" y="230" width="120" height="80" as="geometry" />
        </mxCell>
        <mxCell id="dN1vhKYBmb369EX6Gjwd-5" value="View oganizer" style="ellipse;whiteSpace=wrap;html=1;" vertex="1" parent="1">
          <mxGeometry x="280" y="280" width="120" height="80" as="geometry" />
        </mxCell>
        <mxCell id="dN1vhKYBmb369EX6Gjwd-6" value="Use web for &lt;br&gt;identify author" style="ellipse;whiteSpace=wrap;html=1;" vertex="1" parent="1">
          <mxGeometry x="280" y="390" width="120" height="80" as="geometry" />
        </mxCell>
        <mxCell id="dN1vhKYBmb369EX6Gjwd-7" value="View web page" style="ellipse;whiteSpace=wrap;html=1;" vertex="1" parent="1">
          <mxGeometry x="280" y="170" width="120" height="80" as="geometry" />
        </mxCell>
        <mxCell id="dN1vhKYBmb369EX6Gjwd-8" value="Manage UI" style="ellipse;whiteSpace=wrap;html=1;" vertex="1" parent="1">
          <mxGeometry x="480" y="350" width="120" height="80" as="geometry" />
        </mxCell>
        <mxCell id="dN1vhKYBmb369EX6Gjwd-9" value="&lt;font style=&quot;font-size: 24px;&quot;&gt;Use Case Diagram&lt;/font&gt;" style="text;html=1;strokeColor=none;fillColor=none;align=center;verticalAlign=middle;whiteSpace=wrap;rounded=0;" vertex="1" parent="1">
          <mxGeometry x="323.75" y="80" width="232.5" height="30" as="geometry" />
        </mxCell>
        <mxCell id="dN1vhKYBmb369EX6Gjwd-11" value="" style="endArrow=none;html=1;rounded=0;fontSize=24;entryX=0;entryY=0.5;entryDx=0;entryDy=0;exitX=0.75;exitY=0.1;exitDx=0;exitDy=0;exitPerimeter=0;" edge="1" parent="1" source="dN1vhKYBmb369EX6Gjwd-1" target="dN1vhKYBmb369EX6Gjwd-7">
          <mxGeometry width="50" height="50" relative="1" as="geometry">
            <mxPoint x="210" y="340" as="sourcePoint" />
            <mxPoint x="260" y="290" as="targetPoint" />
          </mxGeometry>
        </mxCell>
        <mxCell id="dN1vhKYBmb369EX6Gjwd-13" value="" style="endArrow=none;html=1;rounded=0;fontSize=24;entryX=0;entryY=0.5;entryDx=0;entryDy=0;exitX=1;exitY=0.3333333333333333;exitDx=0;exitDy=0;exitPerimeter=0;" edge="1" parent="1" source="dN1vhKYBmb369EX6Gjwd-1" target="dN1vhKYBmb369EX6Gjwd-5">
          <mxGeometry width="50" height="50" relative="1" as="geometry">
            <mxPoint x="210" y="340" as="sourcePoint" />
            <mxPoint x="260" y="290" as="targetPoint" />
          </mxGeometry>
        </mxCell>
        <mxCell id="dN1vhKYBmb369EX6Gjwd-14" value="" style="endArrow=none;html=1;rounded=0;fontSize=24;exitX=1;exitY=1;exitDx=0;exitDy=0;exitPerimeter=0;entryX=0;entryY=0.5;entryDx=0;entryDy=0;" edge="1" parent="1" source="dN1vhKYBmb369EX6Gjwd-1" target="dN1vhKYBmb369EX6Gjwd-6">
          <mxGeometry width="50" height="50" relative="1" as="geometry">
            <mxPoint x="210" y="340" as="sourcePoint" />
            <mxPoint x="260" y="290" as="targetPoint" />
          </mxGeometry>
        </mxCell>
        <mxCell id="dN1vhKYBmb369EX6Gjwd-15" value="" style="endArrow=none;html=1;rounded=0;fontSize=24;entryX=0.25;entryY=0.1;entryDx=0;entryDy=0;entryPerimeter=0;exitX=1;exitY=0.5;exitDx=0;exitDy=0;" edge="1" parent="1" source="dN1vhKYBmb369EX6Gjwd-4" target="dN1vhKYBmb369EX6Gjwd-2">
          <mxGeometry width="50" height="50" relative="1" as="geometry">
            <mxPoint x="530" y="340" as="sourcePoint" />
            <mxPoint x="580" y="290" as="targetPoint" />
          </mxGeometry>
        </mxCell>
        <mxCell id="dN1vhKYBmb369EX6Gjwd-16" value="" style="endArrow=none;html=1;rounded=0;fontSize=24;entryX=0.5;entryY=0.5;entryDx=0;entryDy=0;entryPerimeter=0;exitX=1;exitY=0.5;exitDx=0;exitDy=0;" edge="1" parent="1" source="dN1vhKYBmb369EX6Gjwd-8" target="dN1vhKYBmb369EX6Gjwd-2">
          <mxGeometry width="50" height="50" relative="1" as="geometry">
            <mxPoint x="530" y="340" as="sourcePoint" />
            <mxPoint x="580" y="290" as="targetPoint" />
          </mxGeometry>
        </mxCell>
      </root>
    </mxGraphModel>
  </diagram>
</mxfile>
